<?xml version="1.0" encoding="UTF-8" standalone="no"?>
<!DOCTYPE svg PUBLIC "-//W3C//DTD SVG 1.1//EN"
 "http://www.w3.org/Graphics/SVG/1.1/DTD/svg11.dtd">
<!-- Generated by graphviz version 2.47.3 (20210619.1520)
 -->
<!-- Title: dependencies Pages: 1 -->
<svg width="729pt" height="174pt"
 viewBox="0.00 0.00 729.00 173.80" xmlns="http://www.w3.org/2000/svg" xmlns:xlink="http://www.w3.org/1999/xlink">
<g id="graph0" class="graph" transform="scale(1 1) rotate(0) translate(4 169.8)">
<title>dependencies</title>
<polygon fill="white" stroke="transparent" points="-4,4 -4,-169.8 725,-169.8 725,4 -4,4"/>
<text text-anchor="middle" x="360.5" y="-8.2" font-family="sans-serif" font-size="14.00">dependencies</text>
<g id="clust1" class="cluster">
<title>cluster_WalletModule</title>
<polygon fill="none" stroke="black" stroke-dasharray="1,5" points="8,-32.8 8,-157.8 713,-157.8 713,-32.8 8,-32.8"/>
</g>
<g id="clust2" class="cluster">
<title>cluster_WalletModule_declarations</title>
<polygon fill="none" stroke="black" points="16,-40.8 16,-92.8 705,-92.8 705,-40.8 16,-40.8"/>
</g>
<!-- BackupComponent -->
<g id="node1" class="node">
<title>BackupComponent</title>
<polygon fill="#ffffb3" stroke="black" points="697.1,-84.8 572.9,-84.8 572.9,-48.8 697.1,-48.8 697.1,-84.8"/>
<text text-anchor="middle" x="635" y="-62.6" font-family="Times,serif" font-size="14.00">BackupComponent</text>
</g>
<!-- WalletModule -->
<g id="node6" class="node">
<title>WalletModule</title>
<polygon fill="#8dd3c7" stroke="black" points="415.37,-149.8 412.37,-153.8 391.37,-153.8 388.37,-149.8 318.63,-149.8 318.63,-113.8 415.37,-113.8 415.37,-149.8"/>
<text text-anchor="middle" x="367" y="-127.6" font-family="Times,serif" font-size="14.00">WalletModule</text>
</g>
<!-- BackupComponent&#45;&gt;WalletModule -->
<g id="edge1" class="edge">
<title>BackupComponent&#45;&gt;WalletModule</title>
<path fill="none" stroke="black" d="M635,-85.08C635,-106.12 635,-137.8 635,-137.8 635,-137.8 425.53,-137.8 425.53,-137.8"/>
<polygon fill="black" stroke="black" points="425.53,-134.3 415.53,-137.8 425.53,-141.3 425.53,-134.3"/>
</g>
<!-- NewComponent -->
<g id="node2" class="node">
<title>NewComponent</title>
<polygon fill="#ffffb3" stroke="black" points="554.76,-84.8 447.24,-84.8 447.24,-48.8 554.76,-48.8 554.76,-84.8"/>
<text text-anchor="middle" x="501" y="-62.6" font-family="Times,serif" font-size="14.00">NewComponent</text>
</g>
<!-- NewComponent&#45;&gt;WalletModule -->
<g id="edge2" class="edge">
<title>NewComponent&#45;&gt;WalletModule</title>
<path fill="none" stroke="black" d="M501,-84.82C501,-102.17 501,-125.8 501,-125.8 501,-125.8 425.38,-125.8 425.38,-125.8"/>
<polygon fill="black" stroke="black" points="425.38,-122.3 415.38,-125.8 425.38,-129.3 425.38,-122.3"/>
</g>
<!-- RestoreComponent -->
<g id="node3" class="node">
<title>RestoreComponent</title>
<polygon fill="#ffffb3" stroke="black" points="429.09,-84.8 304.91,-84.8 304.91,-48.8 429.09,-48.8 429.09,-84.8"/>
<text text-anchor="middle" x="367" y="-62.6" font-family="Times,serif" font-size="14.00">RestoreComponent</text>
</g>
<!-- RestoreComponent&#45;&gt;WalletModule -->
<g id="edge3" class="edge">
<title>RestoreComponent&#45;&gt;WalletModule</title>
<path fill="none" stroke="black" d="M367,-84.91C367,-84.91 367,-103.79 367,-103.79"/>
<polygon fill="black" stroke="black" points="363.5,-103.79 367,-113.79 370.5,-103.79 363.5,-103.79"/>
</g>
<!-- SettingsComponent -->
<g id="node4" class="node">
<title>SettingsComponent</title>
<polygon fill="#ffffb3" stroke="black" points="287.45,-84.8 160.55,-84.8 160.55,-48.8 287.45,-48.8 287.45,-84.8"/>
<text text-anchor="middle" x="224" y="-62.6" font-family="Times,serif" font-size="14.00">SettingsComponent</text>
</g>
<!-- SettingsComponent&#45;&gt;WalletModule -->
<g id="edge4" class="edge">
<title>SettingsComponent&#45;&gt;WalletModule</title>
<path fill="none" stroke="black" d="M224,-84.82C224,-102.17 224,-125.8 224,-125.8 224,-125.8 308.59,-125.8 308.59,-125.8"/>
<polygon fill="black" stroke="black" points="308.59,-129.3 318.59,-125.8 308.59,-122.3 308.59,-129.3"/>
</g>
<!-- WalletComponent -->
<g id="node5" class="node">
<title>WalletComponent</title>
<polygon fill="#ffffb3" stroke="black" points="142.15,-84.8 23.85,-84.8 23.85,-48.8 142.15,-48.8 142.15,-84.8"/>
<text text-anchor="middle" x="83" y="-62.6" font-family="Times,serif" font-size="14.00">WalletComponent</text>
</g>
<!-- WalletComponent&#45;&gt;WalletModule -->
<g id="edge5" class="edge">
<title>WalletComponent&#45;&gt;WalletModule</title>
<path fill="none" stroke="black" d="M83,-85.08C83,-106.12 83,-137.8 83,-137.8 83,-137.8 308.5,-137.8 308.5,-137.8"/>
<polygon fill="black" stroke="black" points="308.5,-141.3 318.5,-137.8 308.5,-134.3 308.5,-141.3"/>
</g>
</g>
</svg>
