<?xml version="1.0" encoding="UTF-8" standalone="no"?>
<!DOCTYPE svg PUBLIC "-//W3C//DTD SVG 1.1//EN"
 "http://www.w3.org/Graphics/SVG/1.1/DTD/svg11.dtd">
<!-- Generated by graphviz version 2.47.3 (20210619.1520)
 -->
<!-- Title: dependencies Pages: 1 -->
<svg width="316pt" height="239pt"
 viewBox="0.00 0.00 316.00 238.80" xmlns="http://www.w3.org/2000/svg" xmlns:xlink="http://www.w3.org/1999/xlink">
<g id="graph0" class="graph" transform="scale(1 1) rotate(0) translate(4 234.8)">
<title>dependencies</title>
<polygon fill="white" stroke="transparent" points="-4,4 -4,-234.8 312,-234.8 312,4 -4,4"/>
<text text-anchor="middle" x="154" y="-8.2" font-family="sans-serif" font-size="14.00">dependencies</text>
<g id="clust1" class="cluster">
<title>cluster_BlockchainModule</title>
<polygon fill="none" stroke="black" stroke-dasharray="1,5" points="8,-32.8 8,-222.8 300,-222.8 300,-32.8 8,-32.8"/>
</g>
<g id="clust3" class="cluster">
<title>cluster_BlockchainModule_BlockchainComponent_providers</title>
<polygon fill="none" stroke="black" points="130,-40.8 130,-157.8 292,-157.8 292,-40.8 130,-40.8"/>
</g>
<g id="clust4" class="cluster">
<title>cluster_BlockchainModule_imports</title>
<polygon fill="none" stroke="black" points="16,-105.8 16,-157.8 122,-157.8 122,-105.8 16,-105.8"/>
</g>
<!-- BlockchainComponent -->
<g id="node1" class="node">
<title>BlockchainComponent</title>
<polygon fill="#ffffb3" stroke="black" points="283.59,-149.8 138.41,-149.8 138.41,-113.8 283.59,-113.8 283.59,-149.8"/>
<text text-anchor="middle" x="211" y="-127.6" font-family="Times,serif" font-size="14.00">BlockchainComponent</text>
</g>
<!-- BlockchainModule -->
<g id="node2" class="node">
<title>BlockchainModule</title>
<polygon fill="#8dd3c7" stroke="black" points="205.81,-214.8 202.81,-218.8 181.81,-218.8 178.81,-214.8 82.19,-214.8 82.19,-178.8 205.81,-178.8 205.81,-214.8"/>
<text text-anchor="middle" x="144" y="-192.6" font-family="Times,serif" font-size="14.00">BlockchainModule</text>
</g>
<!-- BlockchainComponent&#45;&gt;BlockchainModule -->
<g id="edge1" class="edge">
<title>BlockchainComponent&#45;&gt;BlockchainModule</title>
<path fill="none" stroke="black" d="M172.05,-149.91C172.05,-149.91 172.05,-168.79 172.05,-168.79"/>
<polygon fill="black" stroke="black" points="168.55,-168.79 172.05,-178.79 175.55,-168.79 168.55,-168.79"/>
</g>
<!-- ChartService -->
<g id="node3" class="node">
<title>ChartService</title>
<ellipse fill="#fdb462" stroke="black" cx="211" cy="-66.8" rx="61.39" ry="18"/>
<text text-anchor="middle" x="211" y="-62.6" font-family="Times,serif" font-size="14.00">ChartService</text>
</g>
<!-- ChartService&#45;&gt;BlockchainComponent -->
<g id="edge2" class="edge">
<title>ChartService&#45;&gt;BlockchainComponent</title>
<path fill="none" stroke="black" d="M211,-84.91C211,-84.91 211,-103.79 211,-103.79"/>
<polygon fill="black" stroke="black" points="207.5,-103.79 211,-113.79 214.5,-103.79 207.5,-103.79"/>
</g>
<!-- ChartModule -->
<g id="node4" class="node">
<title>ChartModule</title>
<polygon fill="#8dd3c7" stroke="black" points="114.15,-149.8 111.15,-153.8 90.15,-153.8 87.15,-149.8 23.85,-149.8 23.85,-113.8 114.15,-113.8 114.15,-149.8"/>
<text text-anchor="middle" x="69" y="-127.6" font-family="Times,serif" font-size="14.00">ChartModule</text>
</g>
<!-- ChartModule&#45;&gt;BlockchainModule -->
<g id="edge3" class="edge">
<title>ChartModule&#45;&gt;BlockchainModule</title>
<path fill="none" stroke="black" d="M98.34,-149.91C98.34,-149.91 98.34,-168.79 98.34,-168.79"/>
<polygon fill="black" stroke="black" points="94.84,-168.79 98.34,-178.79 101.84,-168.79 94.84,-168.79"/>
</g>
</g>
</svg>
