<?xml version="1.0" encoding="UTF-8" standalone="no"?>
<!DOCTYPE svg PUBLIC "-//W3C//DTD SVG 1.1//EN"
 "http://www.w3.org/Graphics/SVG/1.1/DTD/svg11.dtd">
<!-- Generated by graphviz version 2.47.3 (20210619.1520)
 -->
<!-- Title: dependencies Pages: 1 -->
<svg width="759pt" height="247pt"
 viewBox="0.00 0.00 759.00 246.80" xmlns="http://www.w3.org/2000/svg" xmlns:xlink="http://www.w3.org/1999/xlink">
<g id="graph0" class="graph" transform="scale(1 1) rotate(0) translate(4 242.8)">
<title>dependencies</title>
<polygon fill="white" stroke="transparent" points="-4,4 -4,-242.8 755,-242.8 755,4 -4,4"/>
<text text-anchor="middle" x="375.5" y="-8.2" font-family="sans-serif" font-size="14.00">dependencies</text>
<g id="clust1" class="cluster">
<title>cluster_AppModule</title>
<polygon fill="none" stroke="black" stroke-dasharray="1,5" points="8,-32.8 8,-230.8 743,-230.8 743,-32.8 8,-32.8"/>
</g>
<g id="clust6" class="cluster">
<title>cluster_AppModule_bootstrap</title>
<polygon fill="none" stroke="black" points="288,-170.8 288,-222.8 412,-222.8 412,-170.8 288,-170.8"/>
</g>
<g id="clust2" class="cluster">
<title>cluster_AppModule_declarations</title>
<polygon fill="none" stroke="black" points="613,-40.8 613,-92.8 735,-92.8 735,-40.8 613,-40.8"/>
</g>
<g id="clust4" class="cluster">
<title>cluster_AppModule_imports</title>
<polygon fill="none" stroke="black" points="16,-40.8 16,-92.8 605,-92.8 605,-40.8 16,-40.8"/>
</g>
<!-- AppComponent -->
<g id="node1" class="node">
<title>AppComponent</title>
<polygon fill="#ffffb3" stroke="black" points="726.94,-84.8 621.06,-84.8 621.06,-48.8 726.94,-48.8 726.94,-84.8"/>
<text text-anchor="middle" x="674" y="-62.6" font-family="Times,serif" font-size="14.00">AppComponent</text>
</g>
<!-- AppModule -->
<g id="node2" class="node">
<title>AppModule</title>
<polygon fill="#8dd3c7" stroke="black" points="391.66,-149.8 388.66,-153.8 367.66,-153.8 364.66,-149.8 308.34,-149.8 308.34,-113.8 391.66,-113.8 391.66,-149.8"/>
<text text-anchor="middle" x="350" y="-127.6" font-family="Times,serif" font-size="14.00">AppModule</text>
</g>
<!-- AppComponent&#45;&gt;AppModule -->
<g id="edge1" class="edge">
<title>AppComponent&#45;&gt;AppModule</title>
<path fill="none" stroke="black" d="M674,-85.08C674,-106.12 674,-137.8 674,-137.8 674,-137.8 401.69,-137.8 401.69,-137.8"/>
<polygon fill="black" stroke="black" points="401.69,-134.3 391.69,-137.8 401.69,-141.3 401.69,-134.3"/>
</g>
<!-- AppComponent  -->
<g id="node8" class="node">
<title>AppComponent </title>
<polygon fill="#80b1d3" stroke="black" points="404.44,-214.8 295.56,-214.8 295.56,-178.8 404.44,-178.8 404.44,-214.8"/>
<text text-anchor="middle" x="350" y="-192.6" font-family="Times,serif" font-size="14.00">AppComponent </text>
</g>
<!-- AppModule&#45;&gt;AppComponent  -->
<g id="edge7" class="edge">
<title>AppModule&#45;&gt;AppComponent </title>
<path fill="none" stroke="black" stroke-dasharray="1,5" d="M350,-149.91C350,-149.91 350,-168.79 350,-168.79"/>
<polygon fill="black" stroke="black" points="346.5,-168.79 350,-178.79 353.5,-168.79 346.5,-168.79"/>
</g>
<!-- AppRoutingModule -->
<g id="node3" class="node">
<title>AppRoutingModule</title>
<polygon fill="#8dd3c7" stroke="black" points="597.27,-84.8 594.27,-88.8 573.27,-88.8 570.27,-84.8 468.73,-84.8 468.73,-48.8 597.27,-48.8 597.27,-84.8"/>
<text text-anchor="middle" x="533" y="-62.6" font-family="Times,serif" font-size="14.00">AppRoutingModule</text>
</g>
<!-- AppRoutingModule&#45;&gt;AppModule -->
<g id="edge2" class="edge">
<title>AppRoutingModule&#45;&gt;AppModule</title>
<path fill="none" stroke="black" d="M533,-84.82C533,-102.17 533,-125.8 533,-125.8 533,-125.8 401.98,-125.8 401.98,-125.8"/>
<polygon fill="black" stroke="black" points="401.98,-122.3 391.98,-125.8 401.98,-129.3 401.98,-122.3"/>
</g>
<!-- AuthModule -->
<g id="node4" class="node">
<title>AuthModule</title>
<polygon fill="#8dd3c7" stroke="black" points="450.55,-84.8 447.55,-88.8 426.55,-88.8 423.55,-84.8 363.45,-84.8 363.45,-48.8 450.55,-48.8 450.55,-84.8"/>
<text text-anchor="middle" x="407" y="-62.6" font-family="Times,serif" font-size="14.00">AuthModule</text>
</g>
<!-- AuthModule&#45;&gt;AppModule -->
<g id="edge3" class="edge">
<title>AuthModule&#45;&gt;AppModule</title>
<path fill="none" stroke="black" d="M377.53,-84.91C377.53,-84.91 377.53,-103.79 377.53,-103.79"/>
<polygon fill="black" stroke="black" points="374.03,-103.79 377.53,-113.79 381.03,-103.79 374.03,-103.79"/>
</g>
<!-- ConsoleModule -->
<g id="node5" class="node">
<title>ConsoleModule</title>
<polygon fill="#8dd3c7" stroke="black" points="345.94,-84.8 342.94,-88.8 321.94,-88.8 318.94,-84.8 240.06,-84.8 240.06,-48.8 345.94,-48.8 345.94,-84.8"/>
<text text-anchor="middle" x="293" y="-62.6" font-family="Times,serif" font-size="14.00">ConsoleModule</text>
</g>
<!-- ConsoleModule&#45;&gt;AppModule -->
<g id="edge4" class="edge">
<title>ConsoleModule&#45;&gt;AppModule</title>
<path fill="none" stroke="black" d="M326.94,-84.91C326.94,-84.91 326.94,-103.79 326.94,-103.79"/>
<polygon fill="black" stroke="black" points="323.45,-103.79 326.94,-113.79 330.45,-103.79 323.45,-103.79"/>
</g>
<!-- DataModule -->
<g id="node6" class="node">
<title>DataModule</title>
<polygon fill="#8dd3c7" stroke="black" points="221.98,-84.8 218.98,-88.8 197.98,-88.8 194.98,-84.8 136.02,-84.8 136.02,-48.8 221.98,-48.8 221.98,-84.8"/>
<text text-anchor="middle" x="179" y="-62.6" font-family="Times,serif" font-size="14.00">DataModule</text>
</g>
<!-- DataModule&#45;&gt;AppModule -->
<g id="edge5" class="edge">
<title>DataModule&#45;&gt;AppModule</title>
<path fill="none" stroke="black" d="M179,-84.82C179,-102.17 179,-125.8 179,-125.8 179,-125.8 298.17,-125.8 298.17,-125.8"/>
<polygon fill="black" stroke="black" points="298.17,-129.3 308.17,-125.8 298.17,-122.3 298.17,-129.3"/>
</g>
<!-- StatusModule -->
<g id="node7" class="node">
<title>StatusModule</title>
<polygon fill="#8dd3c7" stroke="black" points="117.77,-84.8 114.77,-88.8 93.77,-88.8 90.77,-84.8 24.23,-84.8 24.23,-48.8 117.77,-48.8 117.77,-84.8"/>
<text text-anchor="middle" x="71" y="-62.6" font-family="Times,serif" font-size="14.00">StatusModule</text>
</g>
<!-- StatusModule&#45;&gt;AppModule -->
<g id="edge6" class="edge">
<title>StatusModule&#45;&gt;AppModule</title>
<path fill="none" stroke="black" d="M71,-85.08C71,-106.12 71,-137.8 71,-137.8 71,-137.8 298.23,-137.8 298.23,-137.8"/>
<polygon fill="black" stroke="black" points="298.23,-141.3 308.23,-137.8 298.23,-134.3 298.23,-141.3"/>
</g>
</g>
</svg>
