<?xml version="1.0" encoding="UTF-8" standalone="no"?>
<!DOCTYPE svg PUBLIC "-//W3C//DTD SVG 1.1//EN"
 "http://www.w3.org/Graphics/SVG/1.1/DTD/svg11.dtd">
<!-- Generated by graphviz version 2.47.3 (20210619.1520)
 -->
<!-- Title: dependencies Pages: 1 -->
<svg width="1166pt" height="174pt"
 viewBox="0.00 0.00 1166.00 173.80" xmlns="http://www.w3.org/2000/svg" xmlns:xlink="http://www.w3.org/1999/xlink">
<g id="graph0" class="graph" transform="scale(1 1) rotate(0) translate(4 169.8)">
<title>dependencies</title>
<polygon fill="white" stroke="transparent" points="-4,4 -4,-169.8 1162,-169.8 1162,4 -4,4"/>
<text text-anchor="middle" x="579" y="-8.2" font-family="sans-serif" font-size="14.00">dependencies</text>
<g id="clust1" class="cluster">
<title>cluster_AppRoutingModule</title>
<polygon fill="none" stroke="black" stroke-dasharray="1,5" points="8,-32.8 8,-157.8 1150,-157.8 1150,-32.8 8,-32.8"/>
</g>
<g id="clust3" class="cluster">
<title>cluster_AppRoutingModule_imports</title>
<polygon fill="none" stroke="black" points="16,-40.8 16,-92.8 1142,-92.8 1142,-40.8 16,-40.8"/>
</g>
<!-- BlockchainRoutingModule -->
<g id="node1" class="node">
<title>BlockchainRoutingModule</title>
<polygon fill="#8dd3c7" stroke="black" points="1134.43,-84.8 1131.43,-88.8 1110.43,-88.8 1107.43,-84.8 965.57,-84.8 965.57,-48.8 1134.43,-48.8 1134.43,-84.8"/>
<text text-anchor="middle" x="1050" y="-62.6" font-family="Times,serif" font-size="14.00">BlockchainRoutingModule</text>
</g>
<!-- AppRoutingModule -->
<g id="node8" class="node">
<title>AppRoutingModule</title>
<polygon fill="#8dd3c7" stroke="black" points="631.27,-149.8 628.27,-153.8 607.27,-153.8 604.27,-149.8 502.73,-149.8 502.73,-113.8 631.27,-113.8 631.27,-149.8"/>
<text text-anchor="middle" x="567" y="-127.6" font-family="Times,serif" font-size="14.00">AppRoutingModule</text>
</g>
<!-- BlockchainRoutingModule&#45;&gt;AppRoutingModule -->
<g id="edge1" class="edge">
<title>BlockchainRoutingModule&#45;&gt;AppRoutingModule</title>
<path fill="none" stroke="black" d="M1050,-85.09C1050,-107.01 1050,-140.8 1050,-140.8 1050,-140.8 641.64,-140.8 641.64,-140.8"/>
<polygon fill="black" stroke="black" points="641.64,-137.3 631.64,-140.8 641.64,-144.3 641.64,-137.3"/>
</g>
<!-- ConsoleRoutingModule -->
<g id="node2" class="node">
<title>ConsoleRoutingModule</title>
<polygon fill="#8dd3c7" stroke="black" points="948.05,-84.8 945.05,-88.8 924.05,-88.8 921.05,-84.8 797.95,-84.8 797.95,-48.8 948.05,-48.8 948.05,-84.8"/>
<text text-anchor="middle" x="873" y="-62.6" font-family="Times,serif" font-size="14.00">ConsoleRoutingModule</text>
</g>
<!-- ConsoleRoutingModule&#45;&gt;AppRoutingModule -->
<g id="edge2" class="edge">
<title>ConsoleRoutingModule&#45;&gt;AppRoutingModule</title>
<path fill="none" stroke="black" d="M873,-84.91C873,-104.14 873,-131.8 873,-131.8 873,-131.8 641.52,-131.8 641.52,-131.8"/>
<polygon fill="black" stroke="black" points="641.52,-128.3 631.52,-131.8 641.52,-135.3 641.52,-128.3"/>
</g>
<!-- PostRoutingModule -->
<g id="node3" class="node">
<title>PostRoutingModule</title>
<polygon fill="#8dd3c7" stroke="black" points="779.29,-84.8 776.29,-88.8 755.29,-88.8 752.29,-84.8 650.71,-84.8 650.71,-48.8 779.29,-48.8 779.29,-84.8"/>
<text text-anchor="middle" x="715" y="-62.6" font-family="Times,serif" font-size="14.00">PostRoutingModule</text>
</g>
<!-- PostRoutingModule&#45;&gt;AppRoutingModule -->
<g id="edge3" class="edge">
<title>PostRoutingModule&#45;&gt;AppRoutingModule</title>
<path fill="none" stroke="black" d="M715,-84.83C715,-101.2 715,-122.8 715,-122.8 715,-122.8 641.48,-122.8 641.48,-122.8"/>
<polygon fill="black" stroke="black" points="641.48,-119.3 631.48,-122.8 641.48,-126.3 641.48,-119.3"/>
</g>
<!-- RootRoutingModule -->
<g id="node4" class="node">
<title>RootRoutingModule</title>
<polygon fill="#8dd3c7" stroke="black" points="632.89,-84.8 629.89,-88.8 608.89,-88.8 605.89,-84.8 501.11,-84.8 501.11,-48.8 632.89,-48.8 632.89,-84.8"/>
<text text-anchor="middle" x="567" y="-62.6" font-family="Times,serif" font-size="14.00">RootRoutingModule</text>
</g>
<!-- RootRoutingModule&#45;&gt;AppRoutingModule -->
<g id="edge4" class="edge">
<title>RootRoutingModule&#45;&gt;AppRoutingModule</title>
<path fill="none" stroke="black" d="M567,-84.91C567,-84.91 567,-103.79 567,-103.79"/>
<polygon fill="black" stroke="black" points="563.5,-103.79 567,-113.79 570.5,-103.79 563.5,-103.79"/>
</g>
<!-- SettingsRoutingModule -->
<g id="node5" class="node">
<title>SettingsRoutingModule</title>
<polygon fill="#8dd3c7" stroke="black" points="482.78,-84.8 479.78,-88.8 458.78,-88.8 455.78,-84.8 333.22,-84.8 333.22,-48.8 482.78,-48.8 482.78,-84.8"/>
<text text-anchor="middle" x="408" y="-62.6" font-family="Times,serif" font-size="14.00">SettingsRoutingModule</text>
</g>
<!-- SettingsRoutingModule&#45;&gt;AppRoutingModule -->
<g id="edge5" class="edge">
<title>SettingsRoutingModule&#45;&gt;AppRoutingModule</title>
<path fill="none" stroke="black" d="M408,-84.83C408,-101.2 408,-122.8 408,-122.8 408,-122.8 492.33,-122.8 492.33,-122.8"/>
<polygon fill="black" stroke="black" points="492.33,-126.3 502.33,-122.8 492.33,-119.3 492.33,-126.3"/>
</g>
<!-- UserRoutingModule -->
<g id="node6" class="node">
<title>UserRoutingModule</title>
<polygon fill="#8dd3c7" stroke="black" points="315.59,-84.8 312.59,-88.8 291.59,-88.8 288.59,-84.8 184.41,-84.8 184.41,-48.8 315.59,-48.8 315.59,-84.8"/>
<text text-anchor="middle" x="250" y="-62.6" font-family="Times,serif" font-size="14.00">UserRoutingModule</text>
</g>
<!-- UserRoutingModule&#45;&gt;AppRoutingModule -->
<g id="edge6" class="edge">
<title>UserRoutingModule&#45;&gt;AppRoutingModule</title>
<path fill="none" stroke="black" d="M250,-84.91C250,-104.14 250,-131.8 250,-131.8 250,-131.8 492.47,-131.8 492.47,-131.8"/>
<polygon fill="black" stroke="black" points="492.47,-135.3 502.47,-131.8 492.47,-128.3 492.47,-135.3"/>
</g>
<!-- WalletRoutingModule -->
<g id="node7" class="node">
<title>WalletRoutingModule</title>
<polygon fill="#8dd3c7" stroke="black" points="165.98,-84.8 162.98,-88.8 141.98,-88.8 138.98,-84.8 24.02,-84.8 24.02,-48.8 165.98,-48.8 165.98,-84.8"/>
<text text-anchor="middle" x="95" y="-62.6" font-family="Times,serif" font-size="14.00">WalletRoutingModule</text>
</g>
<!-- WalletRoutingModule&#45;&gt;AppRoutingModule -->
<g id="edge7" class="edge">
<title>WalletRoutingModule&#45;&gt;AppRoutingModule</title>
<path fill="none" stroke="black" d="M95,-85.09C95,-107.01 95,-140.8 95,-140.8 95,-140.8 492.36,-140.8 492.36,-140.8"/>
<polygon fill="black" stroke="black" points="492.36,-144.3 502.36,-140.8 492.36,-137.3 492.36,-144.3"/>
</g>
</g>
</svg>
