<?xml version="1.0" encoding="UTF-8" standalone="no"?>
<!DOCTYPE svg PUBLIC "-//W3C//DTD SVG 1.1//EN"
 "http://www.w3.org/Graphics/SVG/1.1/DTD/svg11.dtd">
<!-- Generated by graphviz version 2.47.3 (20210619.1520)
 -->
<!-- Title: dependencies Pages: 1 -->
<svg width="919pt" height="247pt"
 viewBox="0.00 0.00 919.00 246.80" xmlns="http://www.w3.org/2000/svg" xmlns:xlink="http://www.w3.org/1999/xlink">
<g id="graph0" class="graph" transform="scale(1 1) rotate(0) translate(4 242.8)">
<title>dependencies</title>
<polygon fill="white" stroke="transparent" points="-4,4 -4,-242.8 915,-242.8 915,4 -4,4"/>
<text text-anchor="middle" x="455.5" y="-8.2" font-family="sans-serif" font-size="14.00">dependencies</text>
<g id="clust1" class="cluster">
<title>cluster_PipesModule</title>
<polygon fill="none" stroke="black" stroke-dasharray="1,5" points="8,-32.8 8,-230.8 903,-230.8 903,-32.8 8,-32.8"/>
</g>
<g id="clust2" class="cluster">
<title>cluster_PipesModule_declarations</title>
<polygon fill="none" stroke="black" points="28,-40.8 28,-92.8 883,-92.8 883,-40.8 28,-40.8"/>
</g>
<g id="clust11" class="cluster">
<title>cluster_PipesModule_exports</title>
<polygon fill="none" stroke="black" points="16,-170.8 16,-222.8 895,-222.8 895,-170.8 16,-170.8"/>
</g>
<!-- EffortPipe -->
<g id="node1" class="node">
<title>EffortPipe</title>
<polygon fill="#ffffb3" stroke="black" points="875.31,-84.8 800.69,-84.8 800.69,-48.8 875.31,-48.8 875.31,-84.8"/>
<text text-anchor="middle" x="838" y="-62.6" font-family="Times,serif" font-size="14.00">EffortPipe</text>
</g>
<!-- PipesModule -->
<g id="node8" class="node">
<title>PipesModule</title>
<polygon fill="#8dd3c7" stroke="black" points="535.88,-149.8 532.88,-153.8 511.88,-153.8 508.88,-149.8 446.12,-149.8 446.12,-113.8 535.88,-113.8 535.88,-149.8"/>
<text text-anchor="middle" x="491" y="-127.6" font-family="Times,serif" font-size="14.00">PipesModule</text>
</g>
<!-- EffortPipe&#45;&gt;PipesModule -->
<g id="edge1" class="edge">
<title>EffortPipe&#45;&gt;PipesModule</title>
<path fill="none" stroke="black" d="M804.97,-85.02C804.97,-103.63 804.97,-129.8 804.97,-129.8 804.97,-129.8 545.98,-129.8 545.98,-129.8"/>
<polygon fill="black" stroke="black" points="545.98,-126.3 535.98,-129.8 545.98,-133.3 545.98,-126.3"/>
</g>
<!-- EscapeHtmlPipe -->
<g id="node2" class="node">
<title>EscapeHtmlPipe</title>
<polygon fill="#ffffb3" stroke="black" points="782.81,-84.8 673.19,-84.8 673.19,-48.8 782.81,-48.8 782.81,-84.8"/>
<text text-anchor="middle" x="728" y="-62.6" font-family="Times,serif" font-size="14.00">EscapeHtmlPipe</text>
</g>
<!-- EscapeHtmlPipe&#45;&gt;PipesModule -->
<g id="edge2" class="edge">
<title>EscapeHtmlPipe&#45;&gt;PipesModule</title>
<path fill="none" stroke="black" d="M747.97,-84.83C747.97,-101.86 747.97,-124.8 747.97,-124.8 747.97,-124.8 546.05,-124.8 546.05,-124.8"/>
<polygon fill="black" stroke="black" points="546.05,-121.3 536.05,-124.8 546.05,-128.3 546.05,-121.3"/>
</g>
<!-- HashRatePipe -->
<g id="node3" class="node">
<title>HashRatePipe</title>
<polygon fill="#ffffb3" stroke="black" points="655.81,-84.8 560.19,-84.8 560.19,-48.8 655.81,-48.8 655.81,-84.8"/>
<text text-anchor="middle" x="608" y="-62.6" font-family="Times,serif" font-size="14.00">HashRatePipe</text>
</g>
<!-- HashRatePipe&#45;&gt;PipesModule -->
<g id="edge3" class="edge">
<title>HashRatePipe&#45;&gt;PipesModule</title>
<path fill="none" stroke="black" d="M624.3,-85.04C624.3,-100.37 624.3,-119.8 624.3,-119.8 624.3,-119.8 546.13,-119.8 546.13,-119.8"/>
<polygon fill="black" stroke="black" points="546.13,-116.3 536.13,-119.8 546.13,-123.3 546.13,-116.3"/>
</g>
<!-- MarkdownPipe -->
<g id="node4" class="node">
<title>MarkdownPipe</title>
<polygon fill="#ffffb3" stroke="black" points="542.31,-84.8 439.69,-84.8 439.69,-48.8 542.31,-48.8 542.31,-84.8"/>
<text text-anchor="middle" x="491" y="-62.6" font-family="Times,serif" font-size="14.00">MarkdownPipe</text>
</g>
<!-- MarkdownPipe&#45;&gt;PipesModule -->
<g id="edge4" class="edge">
<title>MarkdownPipe&#45;&gt;PipesModule</title>
<path fill="none" stroke="black" d="M491,-84.91C491,-84.91 491,-103.79 491,-103.79"/>
<polygon fill="black" stroke="black" points="487.5,-103.79 491,-113.79 494.5,-103.79 487.5,-103.79"/>
</g>
<!-- RemoveTrailingZerosPipe -->
<g id="node5" class="node">
<title>RemoveTrailingZerosPipe</title>
<polygon fill="#ffffb3" stroke="black" points="422.02,-84.8 257.98,-84.8 257.98,-48.8 422.02,-48.8 422.02,-84.8"/>
<text text-anchor="middle" x="340" y="-62.6" font-family="Times,serif" font-size="14.00">RemoveTrailingZerosPipe</text>
</g>
<!-- RemoveTrailingZerosPipe&#45;&gt;PipesModule -->
<g id="edge5" class="edge">
<title>RemoveTrailingZerosPipe&#45;&gt;PipesModule</title>
<path fill="none" stroke="black" d="M365.92,-85.04C365.92,-100.37 365.92,-119.8 365.92,-119.8 365.92,-119.8 435.84,-119.8 435.84,-119.8"/>
<polygon fill="black" stroke="black" points="435.84,-123.3 445.84,-119.8 435.84,-116.3 435.84,-123.3"/>
</g>
<!-- ShruggiePipe -->
<g id="node6" class="node">
<title>ShruggiePipe</title>
<polygon fill="#ffffb3" stroke="black" points="239.94,-84.8 148.06,-84.8 148.06,-48.8 239.94,-48.8 239.94,-84.8"/>
<text text-anchor="middle" x="194" y="-62.6" font-family="Times,serif" font-size="14.00">ShruggiePipe</text>
</g>
<!-- ShruggiePipe&#45;&gt;PipesModule -->
<g id="edge6" class="edge">
<title>ShruggiePipe&#45;&gt;PipesModule</title>
<path fill="none" stroke="black" d="M205.74,-84.83C205.74,-101.86 205.74,-124.8 205.74,-124.8 205.74,-124.8 436.11,-124.8 436.11,-124.8"/>
<polygon fill="black" stroke="black" points="436.11,-128.3 446.11,-124.8 436.11,-121.3 436.11,-128.3"/>
</g>
<!-- TimeAgoPipe -->
<g id="node7" class="node">
<title>TimeAgoPipe</title>
<polygon fill="#ffffb3" stroke="black" points="130.04,-84.8 35.96,-84.8 35.96,-48.8 130.04,-48.8 130.04,-84.8"/>
<text text-anchor="middle" x="83" y="-62.6" font-family="Times,serif" font-size="14.00">TimeAgoPipe</text>
</g>
<!-- TimeAgoPipe&#45;&gt;PipesModule -->
<g id="edge7" class="edge">
<title>TimeAgoPipe&#45;&gt;PipesModule</title>
<path fill="none" stroke="black" d="M126.15,-85.02C126.15,-103.63 126.15,-129.8 126.15,-129.8 126.15,-129.8 435.9,-129.8 435.9,-129.8"/>
<polygon fill="black" stroke="black" points="435.9,-133.3 445.9,-129.8 435.9,-126.3 435.9,-133.3"/>
</g>
<!-- EffortPipe  -->
<g id="node9" class="node">
<title>EffortPipe </title>
<polygon fill="#fb8072" stroke="black" points="886.81,-214.8 809.19,-214.8 809.19,-178.8 886.81,-178.8 886.81,-214.8"/>
<text text-anchor="middle" x="848" y="-192.6" font-family="Times,serif" font-size="14.00">EffortPipe </text>
</g>
<!-- PipesModule&#45;&gt;EffortPipe  -->
<g id="edge8" class="edge">
<title>PipesModule&#45;&gt;EffortPipe </title>
<path fill="none" stroke="black" stroke-dasharray="5,2" d="M536.18,-134.8C631.02,-134.8 842.12,-134.8 842.12,-134.8 842.12,-134.8 842.12,-168.53 842.12,-168.53"/>
<polygon fill="black" stroke="black" points="838.63,-168.53 842.12,-178.53 845.63,-168.53 838.63,-168.53"/>
</g>
<!-- EscapeHtmlPipe  -->
<g id="node10" class="node">
<title>EscapeHtmlPipe </title>
<polygon fill="#fb8072" stroke="black" points="791.31,-214.8 678.69,-214.8 678.69,-178.8 791.31,-178.8 791.31,-214.8"/>
<text text-anchor="middle" x="735" y="-192.6" font-family="Times,serif" font-size="14.00">EscapeHtmlPipe </text>
</g>
<!-- PipesModule&#45;&gt;EscapeHtmlPipe  -->
<g id="edge9" class="edge">
<title>PipesModule&#45;&gt;EscapeHtmlPipe </title>
<path fill="none" stroke="black" stroke-dasharray="5,2" d="M535.98,-139.8C600.93,-139.8 713.28,-139.8 713.28,-139.8 713.28,-139.8 713.28,-168.76 713.28,-168.76"/>
<polygon fill="black" stroke="black" points="709.78,-168.76 713.28,-178.76 716.78,-168.76 709.78,-168.76"/>
</g>
<!-- HashRatePipe  -->
<g id="node11" class="node">
<title>HashRatePipe </title>
<polygon fill="#fb8072" stroke="black" points="660.31,-214.8 561.69,-214.8 561.69,-178.8 660.31,-178.8 660.31,-214.8"/>
<text text-anchor="middle" x="611" y="-192.6" font-family="Times,serif" font-size="14.00">HashRatePipe </text>
</g>
<!-- PipesModule&#45;&gt;HashRatePipe  -->
<g id="edge10" class="edge">
<title>PipesModule&#45;&gt;HashRatePipe </title>
<path fill="none" stroke="black" stroke-dasharray="5,2" d="M536.01,-144.8C563.32,-144.8 592.95,-144.8 592.95,-144.8 592.95,-144.8 592.95,-168.61 592.95,-168.61"/>
<polygon fill="black" stroke="black" points="589.45,-168.61 592.95,-178.61 596.45,-168.61 589.45,-168.61"/>
</g>
<!-- MarkdownPipe  -->
<g id="node12" class="node">
<title>MarkdownPipe </title>
<polygon fill="#fb8072" stroke="black" points="543.81,-214.8 438.19,-214.8 438.19,-178.8 543.81,-178.8 543.81,-214.8"/>
<text text-anchor="middle" x="491" y="-192.6" font-family="Times,serif" font-size="14.00">MarkdownPipe </text>
</g>
<!-- PipesModule&#45;&gt;MarkdownPipe  -->
<g id="edge11" class="edge">
<title>PipesModule&#45;&gt;MarkdownPipe </title>
<path fill="none" stroke="black" stroke-dasharray="5,2" d="M491,-149.91C491,-149.91 491,-168.79 491,-168.79"/>
<polygon fill="black" stroke="black" points="487.5,-168.79 491,-178.79 494.5,-168.79 487.5,-168.79"/>
</g>
<!-- RemoveTrailingZerosPipe  -->
<g id="node13" class="node">
<title>RemoveTrailingZerosPipe </title>
<polygon fill="#fb8072" stroke="black" points="420.02,-214.8 251.98,-214.8 251.98,-178.8 420.02,-178.8 420.02,-214.8"/>
<text text-anchor="middle" x="336" y="-192.6" font-family="Times,serif" font-size="14.00">RemoveTrailingZerosPipe </text>
</g>
<!-- PipesModule&#45;&gt;RemoveTrailingZerosPipe  -->
<g id="edge12" class="edge">
<title>PipesModule&#45;&gt;RemoveTrailingZerosPipe </title>
<path fill="none" stroke="black" stroke-dasharray="5,2" d="M445.79,-144.8C392.71,-144.8 311.83,-144.8 311.83,-144.8 311.83,-144.8 311.83,-168.61 311.83,-168.61"/>
<polygon fill="black" stroke="black" points="308.33,-168.61 311.83,-178.61 315.33,-168.61 308.33,-168.61"/>
</g>
<!-- ShruggiePipe  -->
<g id="node14" class="node">
<title>ShruggiePipe </title>
<polygon fill="#fb8072" stroke="black" points="234.44,-214.8 139.56,-214.8 139.56,-178.8 234.44,-178.8 234.44,-214.8"/>
<text text-anchor="middle" x="187" y="-192.6" font-family="Times,serif" font-size="14.00">ShruggiePipe </text>
</g>
<!-- PipesModule&#45;&gt;ShruggiePipe  -->
<g id="edge13" class="edge">
<title>PipesModule&#45;&gt;ShruggiePipe </title>
<path fill="none" stroke="black" stroke-dasharray="5,2" d="M446.01,-139.8C359.19,-139.8 177.01,-139.8 177.01,-139.8 177.01,-139.8 177.01,-168.76 177.01,-168.76"/>
<polygon fill="black" stroke="black" points="173.51,-168.76 177.01,-178.76 180.51,-168.76 173.51,-168.76"/>
</g>
<!-- TimeAgoPipe  -->
<g id="node15" class="node">
<title>TimeAgoPipe </title>
<polygon fill="#fb8072" stroke="black" points="122.04,-214.8 23.96,-214.8 23.96,-178.8 122.04,-178.8 122.04,-214.8"/>
<text text-anchor="middle" x="73" y="-192.6" font-family="Times,serif" font-size="14.00">TimeAgoPipe </text>
</g>
<!-- PipesModule&#45;&gt;TimeAgoPipe  -->
<g id="edge14" class="edge">
<title>PipesModule&#45;&gt;TimeAgoPipe </title>
<path fill="none" stroke="black" stroke-dasharray="5,2" d="M446.11,-134.8C339.3,-134.8 78.88,-134.8 78.88,-134.8 78.88,-134.8 78.88,-168.53 78.88,-168.53"/>
<polygon fill="black" stroke="black" points="75.38,-168.53 78.88,-178.53 82.38,-168.53 75.38,-168.53"/>
</g>
</g>
</svg>
