<?xml version="1.0" encoding="UTF-8" standalone="no"?>
<!DOCTYPE svg PUBLIC "-//W3C//DTD SVG 1.1//EN"
 "http://www.w3.org/Graphics/SVG/1.1/DTD/svg11.dtd">
<!-- Generated by graphviz version 2.47.3 (20210619.1520)
 -->
<!-- Title: dependencies Pages: 1 -->
<svg width="184pt" height="174pt"
 viewBox="0.00 0.00 184.00 173.80" xmlns="http://www.w3.org/2000/svg" xmlns:xlink="http://www.w3.org/1999/xlink">
<g id="graph0" class="graph" transform="scale(1 1) rotate(0) translate(4 169.8)">
<title>dependencies</title>
<polygon fill="white" stroke="transparent" points="-4,4 -4,-169.8 180,-169.8 180,4 -4,4"/>
<text text-anchor="middle" x="88" y="-8.2" font-family="sans-serif" font-size="14.00">dependencies</text>
<g id="clust1" class="cluster">
<title>cluster_ConsoleModule</title>
<polygon fill="none" stroke="black" stroke-dasharray="1,5" points="8,-32.8 8,-157.8 168,-157.8 168,-32.8 8,-32.8"/>
</g>
<g id="clust2" class="cluster">
<title>cluster_ConsoleModule_declarations</title>
<polygon fill="none" stroke="black" points="16,-40.8 16,-92.8 160,-92.8 160,-40.8 16,-40.8"/>
</g>
<!-- ConsoleComponent -->
<g id="node1" class="node">
<title>ConsoleComponent</title>
<polygon fill="#ffffb3" stroke="black" points="151.72,-84.8 24.28,-84.8 24.28,-48.8 151.72,-48.8 151.72,-84.8"/>
<text text-anchor="middle" x="88" y="-62.6" font-family="Times,serif" font-size="14.00">ConsoleComponent</text>
</g>
<!-- ConsoleModule -->
<g id="node2" class="node">
<title>ConsoleModule</title>
<polygon fill="#8dd3c7" stroke="black" points="140.94,-149.8 137.94,-153.8 116.94,-153.8 113.94,-149.8 35.06,-149.8 35.06,-113.8 140.94,-113.8 140.94,-149.8"/>
<text text-anchor="middle" x="88" y="-127.6" font-family="Times,serif" font-size="14.00">ConsoleModule</text>
</g>
<!-- ConsoleComponent&#45;&gt;ConsoleModule -->
<g id="edge1" class="edge">
<title>ConsoleComponent&#45;&gt;ConsoleModule</title>
<path fill="none" stroke="black" d="M88,-84.91C88,-84.91 88,-103.79 88,-103.79"/>
<polygon fill="black" stroke="black" points="84.5,-103.79 88,-113.79 91.5,-103.79 84.5,-103.79"/>
</g>
</g>
</svg>
